<?xml version="1.0" encoding="UTF-8"?>
<svg width="25px" height="25px" viewBox="0 0 25 25" version="1.1" xmlns="http://www.w3.org/2000/svg" xmlns:xlink="http://www.w3.org/1999/xlink">
    <!-- Generator: Sketch 52.2 (67145) - http://www.bohemiancoding.com/sketch -->
    <title>Artboard</title>
    <desc>Created with Sketch.</desc>
    <g id="Artboard" stroke="none" stroke-width="1" fill="none" fill-rule="evenodd">
        <circle id="Oval" stroke="#0DD546" fill="#FFFFFF" cx="12.5" cy="12.5" r="11.5"></circle>
        <path d="M18.9792717,10.72 C18.9905717,10.0337 18.5994717,9.4041 17.9792717,9.11 C17.9267717,8.4606 17.3806717,7.9626 16.7292717,7.97 C16.6304717,7.9779 16.5330717,7.9981 16.4392717,8.03 C16.3785717,7.37 15.7943717,6.8842 15.1344717,6.9449 C14.8757717,6.9687 14.6318717,7.0758 14.4392717,7.25 C14.4392717,6.5596 13.8796717,6 13.1892717,6 C12.4988717,6 11.9392717,6.5596 11.9392717,7.25 C11.9392717,7.25 11.9792717,7.27 11.9792717,7.3 C11.4678717,6.8613 10.6976717,6.9203 10.2589717,7.4318 C10.1108717,7.6045 10.0139717,7.8151 9.97927172,8.04 C9.82097172,7.9895 9.65537172,7.9659 9.48927172,7.97 C8.66087172,7.9631 7.98367172,8.629 7.97677172,9.4574 C7.97507172,9.6572 8.01337172,9.8552 8.08927172,10.04 C7.29677172,10.2615 6.83387172,11.0836 7.05537172,11.8761 C7.19557172,12.3778 7.58757172,12.7698 8.08927172,12.91 C8.34257172,13.6929 9.18267172,14.1223 9.96557172,13.869 C10.5008717,13.6958 10.8929717,13.2359 10.9792717,12.68 C11.1622717,12.8391 11.3885717,12.9401 11.6292717,12.97 L11.6292717,17.97 L9.97927172,18.97 L14.9792717,18.97 L13.3792717,17.97 L13.3792717,15.97 C14.1173717,15.0785 15.0707717,14.3901 16.1492717,13.97 C16.9504717,14.1579 17.7522717,13.6608 17.9401717,12.8597 C17.9685717,12.7386 17.9817717,12.6144 17.9792717,12.49 C17.9821717,12.4367 17.9821717,12.3833 17.9792717,12.33 C18.5994717,12.0359 18.9905717,11.4063 18.9792717,10.72 Z M13.3792717,15.23 L13.3792717,11.79 C13.6495717,12.2707 14.1577717,12.5687 14.7092717,12.57 L14.9892717,12.57 C15.0048717,13.0091 15.2134717,13.419 15.5592717,13.69 C14.7435717,14.064 14.0043717,14.5862 13.3792717,15.23 Z" id="Shape" fill="#17BA45" fill-rule="nonzero"></path>
    </g>
</svg>