<?xml version="1.0" encoding="UTF-8"?>
<svg width="41px" height="41px" viewBox="0 0 41 41" version="1.1" xmlns="http://www.w3.org/2000/svg" xmlns:xlink="http://www.w3.org/1999/xlink">
    <!-- Generator: Sketch 52.2 (67145) - http://www.bohemiancoding.com/sketch -->
    <title>Artboard</title>
    <desc>Created with Sketch.</desc>
    <defs>
        <rect id="path-1" x="0" y="0" width="41" height="41" rx="2"></rect>
        <mask id="mask-2" maskContentUnits="userSpaceOnUse" maskUnits="objectBoundingBox" x="0" y="0" width="41" height="41" fill="white">
            <use xlink:href="#path-1"></use>
        </mask>
    </defs>
    <g id="Artboard" stroke="none" stroke-width="1" fill="none" fill-rule="evenodd">
        <use id="Rectangle" stroke="#32D267" mask="url(#mask-2)" stroke-width="2" fill-opacity="0.3" fill="#77FD7A" stroke-dasharray="1,1" xlink:href="#path-1"></use>
        <g id="Group" transform="translate(9.000000, 9.000000)">
            <circle id="Oval" stroke="#0DD546" fill="#FFFFFF" cx="11.5" cy="11.5" r="11.5"></circle>
            <path d="M17.9792717,9.72 C17.9905717,9.0337 17.5994717,8.4041 16.9792717,8.11 C16.9267717,7.4606 16.3806717,6.9626 15.7292717,6.97 C15.6304717,6.9779 15.5330717,6.9981 15.4392717,7.03 C15.3785717,6.37 14.7943717,5.8842 14.1344717,5.9449 C13.8757717,5.9687 13.6318717,6.0758 13.4392717,6.25 C13.4392717,5.5596 12.8796717,5 12.1892717,5 C11.4988717,5 10.9392717,5.5596 10.9392717,6.25 C10.9392717,6.25 10.9792717,6.27 10.9792717,6.3 C10.4678717,5.8613 9.69767172,5.9203 9.25897172,6.4318 C9.11087172,6.6045 9.01397172,6.8151 8.97927172,7.04 C8.82097172,6.9895 8.65537172,6.9659 8.48927172,6.97 C7.66087172,6.9631 6.98367172,7.629 6.97677172,8.4574 C6.97507172,8.6572 7.01337172,8.8552 7.08927172,9.04 C6.29677172,9.2615 5.83387172,10.0836 6.05537172,10.8761 C6.19557172,11.3778 6.58757172,11.7698 7.08927172,11.91 C7.34257172,12.6929 8.18267172,13.1223 8.96557172,12.869 C9.50087172,12.6958 9.89297172,12.2359 9.97927172,11.68 C10.1622717,11.8391 10.3885717,11.9401 10.6292717,11.97 L10.6292717,16.97 L8.97927172,17.97 L13.9792717,17.97 L12.3792717,16.97 L12.3792717,14.97 C13.1173717,14.0785 14.0707717,13.3901 15.1492717,12.97 C15.9504717,13.1579 16.7522717,12.6608 16.9401717,11.8597 C16.9685717,11.7386 16.9817717,11.6144 16.9792717,11.49 C16.9821717,11.4367 16.9821717,11.3833 16.9792717,11.33 C17.5994717,11.0359 17.9905717,10.4063 17.9792717,9.72 Z M12.3792717,14.23 L12.3792717,10.79 C12.6495717,11.2707 13.1577717,11.5687 13.7092717,11.57 L13.9892717,11.57 C14.0048717,12.0091 14.2134717,12.419 14.5592717,12.69 C13.7435717,13.064 13.0043717,13.5862 12.3792717,14.23 Z" id="Shape" fill="#17BA45" fill-rule="nonzero"></path>
        </g>
    </g>
</svg>