<?xml version="1.0" encoding="UTF-8"?>
<svg width="41px" height="41px" viewBox="0 0 41 41" version="1.1" xmlns="http://www.w3.org/2000/svg" xmlns:xlink="http://www.w3.org/1999/xlink">
    <!-- Generator: Sketch 52.2 (67145) - http://www.bohemiancoding.com/sketch -->
    <title>Artboard</title>
    <desc>Created with Sketch.</desc>
    <g id="Artboard" stroke="none" stroke-width="1" fill="none" fill-rule="evenodd">
        <path d="M2,0 L39,0 C40.1045695,-2.02906125e-16 41,0.8954305 41,2 L41,39 C41,40.1045695 40.1045695,41 39,41 L2,41 C0.8954305,41 1.3527075e-16,40.1045695 0,39 L0,2 C-1.3527075e-16,0.8954305 0.8954305,2.02906125e-16 2,0 Z" id="Rectangle" fill-opacity="0.3" fill="#FFFFFF"></path>
        <g id="Group" transform="translate(9.000000, 9.000000)">
            <circle id="Oval" stroke="#FC6A96" fill="#FFFFFF" cx="11.5" cy="11.5" r="11.5"></circle>
            <path d="M7,7 L7,18 L12,18 L12,15 L15,15 L15,18 L16,18 L16,7 L7,7 Z M11,17 L8,17 L8,15 L11,15 L11,17 Z M11,14 L8,14 L8,12 L11,12 L11,14 Z M11,11 L8,11 L8,9 L11,9 L11,11 Z M15,14 L12,14 L12,12 L15,12 L15,14 Z M15,11 L12,11 L12,9 L15,9 L15,11 Z" id="Shape" fill="#2B2D2D" fill-rule="nonzero"></path>
        </g>
    </g>
</svg>