<?xml version="1.0" encoding="UTF-8"?>
<svg width="25px" height="25px" viewBox="0 0 25 25" version="1.1" xmlns="http://www.w3.org/2000/svg" xmlns:xlink="http://www.w3.org/1999/xlink">
    <!-- Generator: Sketch 52.2 (67145) - http://www.bohemiancoding.com/sketch -->
    <title>Artboard</title>
    <desc>Created with Sketch.</desc>
    <g id="Artboard" stroke="none" stroke-width="1" fill="none" fill-rule="evenodd">
        <circle id="Oval" stroke="#FC6A96" fill="#FFFFFF" cx="12.5" cy="12.5" r="11.5"></circle>
        <path d="M8,8 L8,19 L13,19 L13,16 L16,16 L16,19 L17,19 L17,8 L8,8 Z M12,18 L9,18 L9,16 L12,16 L12,18 Z M12,15 L9,15 L9,13 L12,13 L12,15 Z M12,12 L9,12 L9,10 L12,10 L12,12 Z M16,15 L13,15 L13,13 L16,13 L16,15 Z M16,12 L13,12 L13,10 L16,10 L16,12 Z" id="Shape" fill="#2B2D2D" fill-rule="nonzero"></path>
    </g>
</svg>